# xmcd
#
# Track frame offsets:
#	150
#	14738
#	31225
#	50168
#	66985
#
# Disc length: 1129 seconds
#
# Revision: 0
# Processed by: cddbd v1.5.2PL0 Copyright (c) Steve Scherf et al.
# Submitted via: audiograbber 1.83.01
#
DISCID=45046705
DTITLE=Connor, Sarah - Bounce (Maxi)
DYEAR=2003
DGENRE=Pop
TTITLE0=Bounce (Kayrob Radio Mix)
TTITLE1=Bounce (Jiggy Joint Radio Mix)
TTITLE2=Bounce (Original Verson)
TTITLE3=Bounce (Kayrob vs. Goldkind Rmx)
TTITLE4=Bounce (Jiggy Joint Club Rmx)
EXTD=
EXTT0=
EXTT1=
EXTT2=
EXTT3=
EXTT4=
PLAYORDER=
